Coordinates
version=1
nRows=4
nColumns=107
inDegrees=yes

Units are S.I. units (second, meters, Newtons, ...)
If the header above contains a line with 'inDegrees', this indicates whether rotational values are in degrees (yes) or radians (no).

endheader
time	sternoclavicular_r2	sternoclavicular_r3	unrotscap_r3	unrotscap_r2	acromioclavicular_r2	acromioclavicular_r3	acromioclavicular_r1	unrothum_r1	unrothum_r3	unrothum_r2	elv_angle	shoulder_elv	shoulder1_r2	shoulder_rot	elbow_flexion	pro_sup	deviation	flexion	proximal_distal_r1	proximal_distal_r3	cmc_flexion	cmc_abduction	mp_flexion	ip_flexion	mcp2_flexion	mcp2_abduction	pm2_flexion	md2_flexion	mcp3_flexion	mcp3_abduction	pm3_flexion	md3_flexion	mcp4_flexion	mcp4_abduction	pm4_flexion	md4_flexion	mcp5_flexion	mcp5_abduction	pm5_flexion	md5_flexion	bicpt_tx	bicpt_ty	bicpt_tz	bicpt2_tx	bicpt2_ty	bicpt2_tz	ptpt_tx	ptpt_ty	ptpt_tz	FCUpt_tx	FCUpt_ty	FCUpt_tz	EDCpt_tx	EDCpt_ty	EDCpt_tz	APLpt_tx	APLpt_ty	APLpt_tz	FPLpt_tx	FPLpt_ty	FPLpt_tz	FPLpt2_tx	FPLpt2_ty	FPLpt2_tz	PEC1pt2_tx	PEC1pt2_ty	PEC1pt2_tz	PEC1pt3_tx	PEC1pt3_ty	PEC1pt3_tz	PEC2pt2_tx	PEC2pt2_ty	PEC2pt2_tz	PEC2pt3_tx	PEC2pt3_ty	PEC2pt3_tz	PEC3pt2_tx	PEC3pt2_ty	PEC3pt2_tz	PEC3pt3_tx	PEC3pt3_ty	PEC3pt3_tz	DELT2pt2a_tx	DELT2pt2a_ty	DELT2pt2a_tz	DELT2pt2_tx	DELT2pt2_ty	DELT2pt2_tz	LAT1pt2_tx	LAT1pt2_ty	LAT1pt2_tz	LAT1pt3_tx	LAT1pt3_ty	LAT1pt3_tz	LAT2pt2_tx	LAT2pt2_ty	LAT2pt2_tz	LAT2pt3_tx	LAT2pt3_ty	LAT2pt3_tz	LAT3pt2_tx	LAT3pt2_ty	LAT3pt2_tz	LAT3pt3_tx	LAT3pt3_ty	LAT3pt3_tz
      1.60000000	     -0.32863513	      0.13919433	     -0.13919433	      0.32863513	     -0.06654193	      0.53776847	      0.24172323	     -0.24172323	     -0.53776847	      0.06654193	     97.84351354	     77.80728928	     -1.70769146	    -17.39088050	     30.66557700	     57.20363076	      0.22970877	     -0.37734692	      0.26855783	     -0.18867346	     33.87139166	    -12.71028624	     -9.19114200	      2.66523887	    -10.63832392	     10.88901041	     27.96108655	      9.74660220	     -6.23442557	     -2.19631523	     15.64937448	     16.41038431	     -1.42038401	     -2.38297180	      5.05031045	     22.15314144	     -0.22783800	    -13.81106682	      1.45752609	      5.21706519	      0.00091432	     -0.03111474	     -0.00486613	      0.01626802	     -0.01853045	     -0.00542604	      0.00332330	     -0.06763306	     -0.00465806	      0.00955795	     -0.18309517	     -0.00039711	     -0.00686442	      0.00212574	     -0.00005728	      0.00026683	      0.00010673	      0.00053367	      0.00034155	      0.00102464	      0.00057636	     -0.00001228	     -0.00020942	     -0.00025130	      0.00255035	      0.00894785	      0.00622459	     -0.00834268	      0.02014346	     -0.01910603	      0.00255035	      0.00894785	      0.00622459	      0.00056194	      0.01867377	     -0.00981237	      0.00400954	      0.00497578	      0.01611624	      0.00000000	      0.00809886	      0.00000000	     -0.00730525	     -0.03375975	     -0.00667961	      0.01222518	     -0.00035319	     -0.00244723	     -0.00090775	      0.01521566	     -0.00622459	      0.00250713	      0.02195896	     -0.01815505	     -0.00609491	      0.01318402	     -0.00557619	     -0.01270853	      0.02783774	     -0.03116617	     -0.02386092	      0.01474017	     -0.00747815	     -0.01582083	      0.03216037	     -0.03894690
      1.63333333	     -0.33064471	      0.14004550	     -0.14004550	      0.33064471	     -0.06694883	      0.54105688	      0.24320135	     -0.24320135	     -0.54105688	      0.06694883	     97.48304977	     78.28307516	     -1.70140018	    -15.35278999	     30.69647302	     56.67962142	      0.26864456	     -0.32762769	      0.30551691	     -0.16381385	     34.66255796	    -12.68107219	    -10.95381910	      2.41049433	    -11.07287406	     11.27226020	     28.83383182	      9.48407194	     -5.55704646	     -1.94018774	     16.81474636	     16.70907427	      0.29685061	     -2.16672698	      7.03134810	     21.90197699	      3.51221305	    -13.88994721	     -0.28722168	      5.12799754	      0.00091534	     -0.03111829	     -0.00486670	      0.01628733	     -0.01853885	     -0.00549442	      0.00336202	     -0.06760802	     -0.00461585	      0.00950245	     -0.18310859	     -0.00040007	     -0.00680154	      0.00210168	     -0.00004871	      0.00024532	      0.00009813	      0.00049063	      0.00031401	      0.00094202	      0.00052988	     -0.00001262	     -0.00019907	     -0.00023888	      0.00256595	      0.00900256	      0.00626265	     -0.00839369	      0.02026664	     -0.01922286	      0.00256595	      0.00900256	      0.00626265	      0.00056538	      0.01878795	     -0.00987237	      0.00402722	      0.00500621	      0.01615816	      0.00000000	      0.00819896	      0.00000000	     -0.00734992	     -0.03396619	     -0.00676267	      0.01095013	     -0.00029369	     -0.00186162	     -0.00091330	      0.01530870	     -0.00626265	      0.00252246	      0.02209324	     -0.01826607	     -0.00613218	      0.01326464	     -0.00561029	     -0.01278625	      0.02800797	     -0.03135675	     -0.02400683	      0.01483031	     -0.00752388	     -0.01591757	      0.03235703	     -0.03918506
      1.66666667	     -0.32879381	      0.13926154	     -0.13926154	      0.32879381	     -0.06657406	      0.53802812	      0.24183994	     -0.24183994	     -0.53802812	      0.06657406	     97.78013260	     77.84485742	     -1.70658526	    -17.18050934	     30.83762655	     58.98394397	      0.26844265	     -0.32147505	      0.30533171	     -0.16073752	     34.91858462	    -12.75775049	    -10.21274715	      1.94357565	    -10.89645943	     11.33676533	     29.39058138	      9.48951508	     -4.84540005	     -1.69600550	     16.54519321	     16.97035389	      0.49521025	     -2.20062255	      8.03468020	     22.80801536	      5.50286792	    -13.92472327	      0.81252510	      5.13192470	      0.00092001	     -0.03113446	     -0.00486931	      0.01619763	     -0.01857719	     -0.00519081	      0.00319175	     -0.06771812	     -0.00480147	      0.00974713	     -0.18304899	     -0.00038548	     -0.00707806	      0.00220810	     -0.00008752	      0.00024237	      0.00009695	      0.00048473	      0.00031023	      0.00093069	      0.00052351	     -0.00001270	     -0.00019557	     -0.00023469	      0.00255158	      0.00895217	      0.00622759	     -0.00834671	      0.02015319	     -0.01911525	      0.00255158	      0.00895217	      0.00622759	      0.00056221	      0.01868278	     -0.00981711	      0.00401094	      0.00497819	      0.01611957	      0.00000000	      0.00810674	      0.00000000	     -0.00730877	     -0.03377605	     -0.00668615	      0.01209610	     -0.00034696	     -0.00238356	     -0.00090819	      0.01522301	     -0.00622759	      0.00250834	      0.02196957	     -0.01816382	     -0.00609785	      0.01319039	     -0.00557889	     -0.01271467	      0.02785118	     -0.03118122	     -0.02387244	      0.01474729	     -0.00748176	     -0.01582847	      0.03217590	     -0.03896571
      1.70000000	     -0.32709141	      0.13854048	     -0.13854048	      0.32709141	     -0.06622936	      0.53524236	      0.24058776	     -0.24058776	     -0.53524236	      0.06622936	     98.03437740	     77.44179771	     -1.71102267	    -18.90287084	     31.05539345	     61.07804503	      0.26614705	     -0.31174980	      0.30322086	     -0.15587490	     35.05866758	    -12.78767606	    -10.17637429	      1.22342533	    -11.29140126	     11.42269485	     29.63802859	      9.52925341	     -4.65598656	     -1.52763615	     16.48575583	     17.04606193	      0.98218988	     -2.03604326	      8.56492227	     23.32942159	      7.29204923	    -13.97373384	      1.07710043	      5.11231780	      0.00092722	     -0.03115942	     -0.00487333	      0.01610559	     -0.01863635	     -0.00490845	      0.00303702	     -0.06781817	     -0.00497016	      0.00997091	     -0.18299351	     -0.00036876	     -0.00732935	      0.00230624	     -0.00012529	      0.00023757	      0.00009503	      0.00047515	      0.00030409	      0.00091228	      0.00051316	     -0.00001274	     -0.00019363	     -0.00023236	      0.00253837	      0.00890581	      0.00619535	     -0.00830349	      0.02004884	     -0.01901628	      0.00253837	      0.00890581	      0.00619535	      0.00055930	      0.01858605	     -0.00976628	      0.00399590	      0.00495241	      0.01608368	      0.00000000	      0.00802239	      0.00000000	     -0.00727093	     -0.03360116	     -0.00661615	      0.01313511	     -0.00039848	     -0.00292691	     -0.00090349	      0.01514419	     -0.00619535	      0.00249535	      0.02185581	     -0.01806977	     -0.00606628	      0.01312209	     -0.00555000	     -0.01264884	      0.02770698	     -0.03101977	     -0.02374884	      0.01467093	     -0.00744302	     -0.01574651	      0.03200930	     -0.03876395
